<svg version="1.1" id="Layer_1" xmlns="http://www.w3.org/2000/svg" xmlns:xlink="http://www.w3.org/1999/xlink" x="0px" y="0px"
	 width="100%" viewBox="0 0 1200 1200" enable-background="new 0 0 1200 1200" xml:space="preserve">
<path fill="#1D3985" opacity="1.000000" stroke="none" 
	d="
M530.000000,1201.000000 
	C353.333344,1201.000000 177.166672,1201.000000 1.000000,1201.000000 
	C1.000000,801.000000 1.000000,401.000000 1.000000,1.000000 
	C401.000000,1.000000 801.000000,1.000000 1201.000000,1.000000 
	C1201.000000,401.000000 1201.000000,801.000000 1201.000000,1201.000000 
	C977.500000,1201.000000 754.000000,1201.000000 530.000000,1201.000000 
M899.113831,800.263062 
	C903.840454,803.933777 908.812988,807.332092 913.242920,811.331421 
	C922.747803,819.912354 932.028564,828.744812 941.293579,837.586914 
	C948.041870,844.027222 958.387146,841.449341 960.197632,832.320068 
	C961.110168,827.718567 960.171082,822.761475 960.167847,817.965088 
	C960.102356,720.986633 959.661865,624.005310 960.394775,527.032776 
	C960.511780,511.544525 955.320862,501.022888 944.560791,491.097870 
	C904.816833,454.438629 858.671692,428.123413 809.481384,406.759338 
	C792.169434,399.240540 774.406921,392.700836 756.624878,386.344086 
	C745.265320,382.283264 733.548584,379.171600 721.888794,376.015625 
	C711.513672,373.207336 701.045166,370.693665 690.528992,368.470337 
	C679.028503,366.039001 667.478027,363.735931 655.853271,362.032806 
	C644.680420,360.395905 633.367859,359.738129 622.146362,358.401489 
	C600.440857,355.815979 578.888916,358.480621 557.373718,360.515594 
	C545.684631,361.621155 534.125305,364.284668 522.569458,366.560272 
	C510.561371,368.924866 498.466980,371.093475 486.700439,374.384796 
	C469.811829,379.108826 452.976288,384.195770 436.503479,390.187439 
	C417.826233,396.980957 399.351227,404.442139 381.190002,412.516541 
	C354.003632,424.603516 328.080322,439.106201 303.448822,455.857544 
	C283.990570,469.090637 265.799713,483.798553 249.626373,500.976288 
	C245.657867,505.191223 244.212814,509.759644 244.212418,515.362488 
	C244.205093,617.672607 244.109543,719.982788 244.064056,822.292908 
	C244.062881,824.947327 244.150101,827.653381 244.656845,830.245239 
	C245.602661,835.082581 248.145782,838.815979 253.083939,840.444397 
	C258.056305,842.084106 262.270477,840.782288 265.748413,836.995911 
	C280.568146,820.862183 297.343719,807.019775 315.347961,794.617859 
	C343.051056,775.534912 372.530762,759.635376 403.453278,746.512146 
	C420.824921,739.139893 438.489288,732.391052 456.284302,726.104248 
	C469.699036,721.364929 483.425568,717.398071 497.208496,713.844238 
	C509.218567,710.747498 521.451721,708.425415 533.677124,706.278015 
	C547.734070,703.808899 561.823059,701.004639 576.017761,699.939087 
	C611.039307,697.310181 645.873108,699.998413 680.221924,707.157593 
	C697.380676,710.733948 714.404236,715.276794 731.132202,720.520630 
	C751.183105,726.806030 771.093994,733.696350 790.637573,741.408875 
	C828.914734,756.514221 865.035461,775.794067 899.113831,800.263062 
z"/>
<path fill="#F2F303" opacity="1.000000" stroke="none" 
	d="
M898.811279,800.062195 
	C865.035461,775.794067 828.914734,756.514221 790.637573,741.408875 
	C771.093994,733.696350 751.183105,726.806030 731.132202,720.520630 
	C714.404236,715.276794 697.380676,710.733948 680.221924,707.157593 
	C645.873108,699.998413 611.039307,697.310181 576.017761,699.939087 
	C561.823059,701.004639 547.734070,703.808899 533.677124,706.278015 
	C521.451721,708.425415 509.218567,710.747498 497.208496,713.844238 
	C483.425568,717.398071 469.699036,721.364929 456.284302,726.104248 
	C438.489288,732.391052 420.824921,739.139893 403.453278,746.512146 
	C372.530762,759.635376 343.051056,775.534912 315.347961,794.617859 
	C297.343719,807.019775 280.568146,820.862183 265.748413,836.995911 
	C262.270477,840.782288 258.056305,842.084106 253.083939,840.444397 
	C248.145782,838.815979 245.602661,835.082581 244.656845,830.245239 
	C244.150101,827.653381 244.062881,824.947327 244.064056,822.292908 
	C244.109543,719.982788 244.205093,617.672607 244.212418,515.362488 
	C244.212814,509.759644 245.657867,505.191223 249.626373,500.976288 
	C265.799713,483.798553 283.990570,469.090637 303.448822,455.857544 
	C328.080322,439.106201 354.003632,424.603516 381.190002,412.516541 
	C399.351227,404.442139 417.826233,396.980957 436.503479,390.187439 
	C452.976288,384.195770 469.811829,379.108826 486.700439,374.384796 
	C498.466980,371.093475 510.561371,368.924866 522.569458,366.560272 
	C534.125305,364.284668 545.684631,361.621155 557.373718,360.515594 
	C578.888916,358.480621 600.440857,355.815979 622.146362,358.401489 
	C633.367859,359.738129 644.680420,360.395905 655.853271,362.032806 
	C667.478027,363.735931 679.028503,366.039001 690.528992,368.470337 
	C701.045166,370.693665 711.513672,373.207336 721.888794,376.015625 
	C733.548584,379.171600 745.265320,382.283264 756.624878,386.344086 
	C774.406921,392.700836 792.169434,399.240540 809.481384,406.759338 
	C858.671692,428.123413 904.816833,454.438629 944.560791,491.097870 
	C955.320862,501.022888 960.511780,511.544525 960.394775,527.032776 
	C959.661865,624.005310 960.102356,720.986633 960.167847,817.965088 
	C960.171082,822.761475 961.110168,827.718567 960.197632,832.320068 
	C958.387146,841.449341 948.041870,844.027222 941.293579,837.586914 
	C932.028564,828.744812 922.747803,819.912354 913.242920,811.331421 
	C908.812988,807.332092 903.840454,803.933777 898.811279,800.062195 
M642.201111,413.638092 
	C630.960693,412.729156 619.711609,410.990051 608.481995,411.107971 
	C592.075623,411.280243 575.669800,412.604126 559.292725,413.825958 
	C553.898743,414.228363 548.579468,415.765991 543.253723,416.913116 
	C537.779846,418.092163 532.392395,419.777679 526.871948,420.610138 
	C519.377869,421.740234 518.974670,421.880524 518.974487,429.658936 
	C518.973450,473.307587 518.978027,516.956238 518.983337,560.604858 
	C518.986755,588.759888 519.067993,616.915344 518.921875,645.069580 
	C518.899841,649.312317 520.387268,650.872498 524.442200,650.312012 
	C531.159058,649.383606 537.858093,648.265076 544.601685,647.603027 
	C560.788940,646.013794 576.972778,643.888733 593.203308,643.353577 
	C620.489624,642.453979 647.611267,644.961487 674.466675,650.048279 
	C682.134155,651.500671 683.110962,650.638672 683.112183,642.807678 
	C683.122925,572.003540 683.130981,501.199463 683.138000,430.395355 
	C683.138184,428.896057 683.561768,427.195740 682.997742,425.945770 
	C682.201599,424.181641 680.965637,421.890717 679.390503,421.343842 
	C675.214539,419.894073 670.768860,419.193420 666.406250,418.315308 
	C658.641907,416.752533 650.859558,415.278656 642.201111,413.638092 
M383.693024,691.249939 
	C394.125458,687.138245 404.460144,682.752075 415.018097,678.992859 
	C425.400482,675.296143 435.926880,671.938904 446.544189,668.986938 
	C455.585754,666.473083 455.730865,666.821167 455.643219,657.104675 
	C455.022339,588.277893 454.385040,519.451294 453.722717,450.624908 
	C453.701141,448.383362 453.354797,446.144928 453.133392,443.601257 
	C451.021088,443.885437 449.465881,443.807129 448.139465,444.320221 
	C439.985992,447.474182 431.647003,450.275787 423.811768,454.100220 
	C403.927399,463.805878 383.973969,473.441406 364.608856,484.121521 
	C340.530548,497.401001 318.268585,513.372253 299.517792,533.731323 
	C297.597351,535.816528 296.164337,539.234741 296.137421,542.049988 
	C295.527557,605.877991 295.142517,669.708130 294.740204,733.538025 
	C294.730377,735.098694 295.004089,736.661133 295.201874,738.844299 
	C297.088135,738.049561 298.363983,737.718506 299.410767,737.036072 
	C304.549927,733.685669 309.568085,730.147583 314.738403,726.847351 
	C336.417847,713.008667 359.351074,701.593689 383.693024,691.249939 
M907.245056,702.499451 
	C906.883057,649.520691 906.480347,596.542053 906.232361,543.562744 
	C906.211365,539.076172 904.835266,535.806458 901.714111,532.549683 
	C875.851440,505.563141 844.490906,486.463531 811.483643,469.888641 
	C794.997131,461.609802 777.924072,454.490326 761.041138,447.016479 
	C757.534363,445.464050 753.695190,444.662476 749.304810,443.295624 
	C749.156494,446.491608 748.976196,448.610443 748.971802,450.729645 
	C748.827026,520.702942 748.775330,590.676575 748.419373,660.648804 
	C748.391907,666.045593 751.230042,667.542053 755.105530,668.763550 
	C763.577881,671.433960 772.284302,673.461670 780.566040,676.615967 
	C797.819641,683.187317 815.039185,689.910034 831.942688,697.322998 
	C853.951721,706.974854 875.168335,718.210388 895.054688,731.823608 
	C898.617371,734.262451 902.396545,736.385010 907.254822,739.380554 
	C907.254822,726.355957 907.254822,714.927673 907.245056,702.499451 
z"/>
<path fill="#1F3983" opacity="1.000000" stroke="none" 
	d="
M642.642944,413.702820 
	C650.859558,415.278656 658.641907,416.752533 666.406250,418.315308 
	C670.768860,419.193420 675.214539,419.894073 679.390503,421.343842 
	C680.965637,421.890717 682.201599,424.181641 682.997742,425.945770 
	C683.561768,427.195740 683.138184,428.896057 683.138000,430.395355 
	C683.130981,501.199463 683.122925,572.003540 683.112183,642.807678 
	C683.110962,650.638672 682.134155,651.500671 674.466675,650.048279 
	C647.611267,644.961487 620.489624,642.453979 593.203308,643.353577 
	C576.972778,643.888733 560.788940,646.013794 544.601685,647.603027 
	C537.858093,648.265076 531.159058,649.383606 524.442200,650.312012 
	C520.387268,650.872498 518.899841,649.312317 518.921875,645.069580 
	C519.067993,616.915344 518.986755,588.759888 518.983337,560.604858 
	C518.978027,516.956238 518.973450,473.307587 518.974487,429.658936 
	C518.974670,421.880524 519.377869,421.740234 526.871948,420.610138 
	C532.392395,419.777679 537.779846,418.092163 543.253723,416.913116 
	C548.579468,415.765991 553.898743,414.228363 559.292725,413.825958 
	C575.669800,412.604126 592.075623,411.280243 608.481995,411.107971 
	C619.711609,410.990051 630.960693,412.729156 642.642944,413.702820 
z"/>
<path fill="#1F3A83" opacity="1.000000" stroke="none" 
	d="
M383.377289,691.472839 
	C359.351074,701.593689 336.417847,713.008667 314.738403,726.847351 
	C309.568085,730.147583 304.549927,733.685669 299.410767,737.036072 
	C298.363983,737.718506 297.088135,738.049561 295.201874,738.844299 
	C295.004089,736.661133 294.730377,735.098694 294.740204,733.538025 
	C295.142517,669.708130 295.527557,605.877991 296.137421,542.049988 
	C296.164337,539.234741 297.597351,535.816528 299.517792,533.731323 
	C318.268585,513.372253 340.530548,497.401001 364.608856,484.121521 
	C383.973969,473.441406 403.927399,463.805878 423.811768,454.100220 
	C431.647003,450.275787 439.985992,447.474182 448.139465,444.320221 
	C449.465881,443.807129 451.021088,443.885437 453.133392,443.601257 
	C453.354797,446.144928 453.701141,448.383362 453.722717,450.624908 
	C454.385040,519.451294 455.022339,588.277893 455.643219,657.104675 
	C455.730865,666.821167 455.585754,666.473083 446.544189,668.986938 
	C435.926880,671.938904 425.400482,675.296143 415.018097,678.992859 
	C404.460144,682.752075 394.125458,687.138245 383.377289,691.472839 
z"/>
<path fill="#1F3A83" opacity="1.000000" stroke="none" 
	d="
M907.249939,702.999390 
	C907.254822,714.927673 907.254822,726.355957 907.254822,739.380554 
	C902.396545,736.385010 898.617371,734.262451 895.054688,731.823608 
	C875.168335,718.210388 853.951721,706.974854 831.942688,697.322998 
	C815.039185,689.910034 797.819641,683.187317 780.566040,676.615967 
	C772.284302,673.461670 763.577881,671.433960 755.105530,668.763550 
	C751.230042,667.542053 748.391907,666.045593 748.419373,660.648804 
	C748.775330,590.676575 748.827026,520.702942 748.971802,450.729645 
	C748.976196,448.610443 749.156494,446.491608 749.304810,443.295624 
	C753.695190,444.662476 757.534363,445.464050 761.041138,447.016479 
	C777.924072,454.490326 794.997131,461.609802 811.483643,469.888641 
	C844.490906,486.463531 875.851440,505.563141 901.714111,532.549683 
	C904.835266,535.806458 906.211365,539.076172 906.232361,543.562744 
	C906.480347,596.542053 906.883057,649.520691 907.249939,702.999390 
z"/>
</svg>